<svg width="238" height="238" viewBox="0 0 238 238" fill="none" xmlns="http://www.w3.org/2000/svg">
<g clip-path="url(#clip0_2_1175)">
<path d="M119 238C184.722 238 238 184.722 238 119C238 53.2781 184.722 0 119 0C53.2781 0 0 53.2781 0 119C0 184.722 53.2781 238 119 238Z" fill="#67278B"/>
<path d="M119 230C180.304 230 230 180.304 230 119C230 57.6964 180.304 8 119 8C57.6964 8 8 57.6964 8 119C8 180.304 57.6964 230 119 230Z" fill="#F7EE00"/>
<path d="M119 224C176.99 224 224 176.99 224 119C224 61.0101 176.99 14 119 14C61.0101 14 14 61.0101 14 119C14 176.99 61.0101 224 119 224Z" fill="#67278B"/>
<path d="M111.08 120.336C109.908 117.677 111.654 114.355 115.502 113.027C121.751 110.874 126.019 112.928 128.68 116.843C131 120.262 132.197 125.098 132.231 129.805C132.269 134.9 130.978 139.23 128.961 142.807C124.564 150.606 115.196 153.888 106.014 153.458C97.8236 153.076 88.6292 150.123 83.5076 144.811C65.366 125.999 77.3082 94.3377 97.5043 83.7804C111.618 76.4064 127.272 76.74 140.945 82.3152C161.477 90.6867 177.549 110.881 177.269 134.563C177.077 150.88 169.444 165.975 157.626 177.031C127.277 205.417 83.8595 196.029 58.9658 169.896C23.9235 133.105 36.1489 87.636 69.3307 62.6488C88.1057 48.5111 110.99 42.683 133.573 44.3116C148.198 45.3657 162.699 49.5463 175.881 56.6212C187.797 63.0202 199.07 72.1707 208.117 84.7951C210.66 88.3359 210.847 94.7607 207.313 97.311C203.78 99.8596 197.86 97.5673 195.316 94.0264C187.785 83.5156 174.19 72.6712 164.258 67.3384C137.232 52.8327 103.826 53.2781 80.4406 68.6161C66.9948 77.4347 57.4314 91.3007 53.1526 109.83C46.1671 140.082 63.3339 166.199 87.0776 176.889C102.463 183.817 120.615 184.268 136.743 175.169C147.132 169.306 154.535 159.151 156.649 145.7L156.44 146.19C150.886 158.969 141.916 167.103 131.826 171.485C118.888 177.103 104.951 176.498 92.654 171.471C79.8948 166.257 69.4595 156.706 63.3339 145.002C57.8674 134.562 55.8249 122.403 58.6208 110.083C61.0306 99.4572 67.0257 89.3506 75.4254 81.3402C83.5093 73.6308 93.852 67.8113 105.391 65.3023C121.557 61.7855 135.827 63.6221 147.901 68.3117C163.47 74.3565 177.156 83.3058 184.677 93.4641C186.407 95.8011 185.223 101.66 182.888 103.394C180.556 105.127 176.1 103.94 174.368 101.603C166.365 90.7934 156.086 82.8243 144.504 78.3187C133.158 73.9059 120.558 72.8139 107.615 75.6273C98.0261 77.7116 89.417 82.5577 82.6821 88.9825C75.755 95.5896 70.8308 103.825 68.8862 112.398C66.6292 122.362 68.3747 132.149 72.8973 140.541C77.552 149.179 85.1502 156.345 94.3531 160.704C107.289 166.84 118.466 166.777 127.528 161.69C134.85 157.578 140.794 150.178 145.169 140.114C149.077 130.469 148.63 116.591 139.002 106.353C129.054 95.7754 111.159 93.6756 101.115 100.728C93.5035 106.071 89.0033 119.934 95.8858 130.281C104.788 140.775 118.598 133.966 115.926 125.862C115.272 123.88 113.64 121.965 111.08 120.336Z" fill="#F7EE00"/>
</g>
<defs>
<clipPath id="clip0_2_1175">
<rect width="238" height="238" fill="white"/>
</clipPath>
</defs>
</svg>
