<svg width="238" height="238" viewBox="0 0 238 238" fill="none" xmlns="http://www.w3.org/2000/svg">
<g clip-path="url(#clip0_1_762)">
<path d="M119 238C184.722 238 238 184.722 238 119C238 53.2781 184.722 0 119 0C53.2781 0 0 53.2781 0 119C0 184.722 53.2781 238 119 238Z" fill="#0A1E3F" fill-opacity="0.2"/>
<path d="M114.203 120.29C113.031 117.632 114.777 114.309 118.625 112.982C124.874 110.828 129.142 112.882 131.803 116.798C134.123 120.216 135.319 125.052 135.354 129.759C135.391 134.854 134.101 139.185 132.084 142.762C127.687 150.56 118.319 153.842 109.137 153.412C100.946 153.03 91.752 150.077 86.6304 144.765C68.4888 125.953 80.431 94.2918 100.627 83.7345C114.74 76.3605 130.395 76.6941 144.067 82.2693C164.6 90.6408 180.672 110.835 180.392 134.517C180.2 150.834 172.567 165.929 160.748 176.985C130.4 205.371 86.9823 195.983 62.0886 169.85C27.0463 133.059 39.2717 87.5901 72.4535 62.6029C91.2285 48.4652 114.112 42.6371 136.696 44.2657C151.321 45.3198 165.822 49.5004 179.003 56.5753C190.92 62.9743 202.193 72.1248 211.239 84.7492C213.783 88.29 213.97 94.7148 210.436 97.2651C206.902 99.8137 200.983 97.5214 198.439 93.9805C190.908 83.4697 177.313 72.6253 167.38 67.2925C140.355 52.7868 106.948 53.2322 83.5634 68.5702C70.1176 77.3888 60.5542 91.2548 56.2754 109.785C49.2899 140.036 66.4567 166.153 90.2004 176.843C105.586 183.771 123.738 184.222 139.866 175.123C150.255 169.26 157.657 159.106 159.772 145.654L159.562 146.144C154.008 158.923 145.039 167.058 134.949 171.439C122.011 177.058 108.074 176.452 95.7768 171.426C83.0176 166.211 72.5823 156.66 66.4567 144.956C60.9902 134.516 58.9477 122.357 61.7436 110.037C64.1534 99.4113 70.1485 89.3047 78.5482 81.2943C86.6321 73.5849 96.9748 67.7654 108.514 65.2564C124.68 61.7396 138.949 63.5762 151.024 68.2658C166.593 74.3106 180.279 83.2599 187.8 93.4182C189.53 95.7552 188.345 101.614 186.011 103.348C183.679 105.081 179.223 103.895 177.491 101.558C169.488 90.7475 159.209 82.7784 147.627 78.2728C136.28 73.86 123.681 72.768 110.738 75.5814C101.149 77.6657 92.5398 82.5118 85.8049 88.9366C78.8778 95.5437 73.9536 103.779 72.009 112.352C69.752 122.316 71.4975 132.103 76.0201 140.495C80.6748 149.133 88.273 156.299 97.4759 160.659C110.412 166.794 121.589 166.731 130.651 161.644C137.973 157.532 143.916 150.132 148.291 140.069C152.199 130.423 151.753 116.545 142.125 106.307C132.177 95.7295 114.282 93.6297 104.238 100.682C96.6263 106.025 92.1261 119.888 99.0086 130.235C107.911 140.729 121.721 133.921 119.048 125.816C118.395 123.835 116.762 121.919 114.203 120.29Z" fill="#F5F5F5"/>
</g>
<defs>
<clipPath id="clip0_1_762">
<rect width="238" height="238" fill="white"/>
</clipPath>
</defs>
</svg>
