<svg width="238" height="238" viewBox="0 0 238 238" fill="none" xmlns="http://www.w3.org/2000/svg">
<circle cx="119" cy="119" r="119" fill="#0A1E3F" fill-opacity="0.2"/>
<circle cx="119" cy="119" r="78.5802" fill="white"/>
<path d="M120.937 122.648C120.663 122.526 120.51 122.449 120.51 122.449C120.51 122.449 120.663 122.51 120.937 122.648C120.937 106.158 119.151 84.9756 119.151 84.9756C119.151 84.9756 119.136 84.9145 119.151 84.8992C98.9239 79.7336 84.238 78.7402 84.2227 78.7402C84.2227 78.8014 84.2379 78.8472 84.2379 78.8472C84.2379 78.8472 84.238 78.8166 84.2227 78.7402C67.0789 102.857 65.4607 110.299 65.3691 110.712V110.727C80.284 132.918 87.9934 137.549 87.9934 137.549C101.29 133.774 120.937 122.648 120.937 122.648Z" fill="#0A1E3F"/>
<path d="M147.337 68.4152C147.337 68.4152 171.259 80.8554 176.144 87.9772C176.572 88.6038 180.999 85.4555 183.365 80.0301C181.579 77.1111 179.61 74.3296 177.457 71.6857C177.427 71.6551 177.396 71.6093 177.366 71.5787C177.045 71.1966 176.74 70.8146 176.419 70.4325C176.358 70.3714 176.297 70.295 176.251 70.2338C175.946 69.8823 175.625 69.5155 175.32 69.164C175.244 69.0723 175.167 68.9959 175.091 68.9042C174.786 68.568 174.48 68.2318 174.16 67.8955C174.068 67.8039 173.992 67.7122 173.9 67.6205C173.595 67.2995 173.274 66.9633 172.969 66.6424C172.877 66.5507 172.786 66.459 172.694 66.3673C172.374 66.0463 172.068 65.7254 171.748 65.4197C171.656 65.328 171.565 65.2363 171.458 65.1446C171.137 64.839 170.801 64.518 170.481 64.2124C170.389 64.1207 170.297 64.029 170.191 63.9526C169.855 63.6469 169.519 63.3413 169.183 63.0356C169.091 62.9592 169 62.8675 168.908 62.7911C168.557 62.4854 168.221 62.1798 167.87 61.8894C167.779 61.813 167.687 61.7366 167.611 61.6601C167.26 61.3545 166.893 61.0641 166.527 60.7585C166.45 60.6973 166.359 60.6209 166.283 60.5598C165.901 60.2541 165.534 59.9638 165.153 59.6581C165.076 59.597 165.015 59.5511 164.939 59.5053C164.542 59.1996 164.145 58.894 163.748 58.6036C163.703 58.573 163.641 58.5272 163.596 58.4966C163.168 58.1909 162.756 57.8853 162.329 57.5796C162.298 57.5643 162.283 57.5491 162.252 57.5185C155.673 52.9031 148.314 49.3269 140.422 47.0039C140.468 47.0956 144.406 55.9596 147.368 68.4152H147.337Z" fill="#0A1E3F"/>
<path d="M173.837 170.335C174.188 169.953 174.539 169.586 174.875 169.204C174.997 169.066 175.104 168.944 175.226 168.807C175.547 168.455 175.852 168.088 176.157 167.737C176.279 167.584 176.402 167.446 176.524 167.294C176.829 166.942 177.119 166.575 177.409 166.208C177.531 166.056 177.638 165.918 177.76 165.765C178.066 165.383 178.356 165.001 178.646 164.619C178.752 164.482 178.844 164.359 178.951 164.222C179.272 163.794 179.592 163.351 179.913 162.923C179.974 162.831 180.035 162.755 180.096 162.663C180.874 161.578 181.622 160.462 182.34 159.331C182.691 158.781 183.027 158.231 183.363 157.681C183.424 157.574 183.485 157.467 183.561 157.344C183.836 156.886 184.096 156.443 184.355 155.984C184.431 155.847 184.523 155.694 184.599 155.541C184.844 155.113 185.073 154.685 185.302 154.242C185.393 154.089 185.47 153.921 185.546 153.768C185.775 153.34 185.989 152.897 186.218 152.469C186.294 152.316 186.37 152.148 186.447 151.995C186.676 151.537 186.889 151.078 187.103 150.62C187.164 150.482 187.225 150.345 187.286 150.207C187.53 149.688 187.759 149.153 187.988 148.633C188.019 148.557 188.049 148.48 188.08 148.419C188.614 147.166 189.118 145.898 189.576 144.614C183.699 128.047 179.21 124.609 178.814 124.135C178.798 124.12 178.768 124.104 178.737 124.135C167.288 135.215 155.563 140.365 153.594 141.084C153.487 141.129 153.396 141.252 153.396 141.374C153.197 151.659 148.678 172.52 148.633 172.75C159.059 174.385 167.41 173.147 172.142 172.031C172.6 171.573 173.043 171.114 173.486 170.641C173.577 170.549 173.669 170.442 173.76 170.35L173.837 170.335Z" fill="#0A1E3F"/>
<path d="M115.14 186.185C115.14 186.185 115.125 186.185 115.979 186.048C100.698 181.081 86.4092 169.955 86.4092 169.955C86.3786 169.955 86.3481 169.97 86.3176 169.986C79.2036 171.865 70.4257 171.82 65.0215 171.544C68.1358 174.784 71.5553 177.749 75.2039 180.378C75.2192 180.378 75.2344 180.393 75.2497 180.409C75.6772 180.714 76.1046 181.02 76.5321 181.31C76.5779 181.341 76.6236 181.371 76.6694 181.402C77.0816 181.677 77.4938 181.967 77.9213 182.242C77.9823 182.288 78.0587 182.334 78.1197 182.365C78.5319 182.625 78.9441 182.9 79.3563 183.159C79.4326 183.205 79.5089 183.251 79.5853 183.297C79.9974 183.557 80.4096 183.801 80.8218 184.046C80.8981 184.092 80.9745 184.138 81.0508 184.183C81.463 184.428 81.8904 184.672 82.3179 184.917C82.3942 184.963 82.4705 184.993 82.5469 185.039C82.9743 185.284 83.417 185.513 83.8445 185.758C83.9056 185.788 83.9666 185.819 84.0277 185.865C84.4704 186.109 84.9284 186.338 85.3864 186.568C85.4321 186.583 85.478 186.613 85.5085 186.629C85.9817 186.873 86.4702 187.102 86.9587 187.332C91.0653 189.288 95.3703 190.877 99.8585 192.054C99.8738 192.054 99.9043 192.054 99.9196 192.069C100.439 192.207 100.958 192.344 101.492 192.467C101.553 192.467 101.599 192.497 101.66 192.513C102.164 192.635 102.667 192.742 103.171 192.864C103.248 192.879 103.324 192.895 103.4 192.91C103.904 193.017 104.393 193.124 104.896 193.216C104.988 193.231 105.064 193.246 105.156 193.261C105.644 193.353 106.148 193.445 106.652 193.521C106.744 193.521 106.835 193.552 106.927 193.567C107.43 193.643 107.934 193.72 108.423 193.796C108.514 193.796 108.591 193.827 108.682 193.827C109.186 193.903 109.705 193.964 110.224 194.026C110.301 194.026 110.377 194.041 110.438 194.056C110.972 194.117 111.491 194.178 112.026 194.224C112.071 194.224 112.117 194.224 112.163 194.224C112.728 194.27 113.277 194.316 113.842 194.362C115.491 190.312 115.995 186.17 116.01 186.048C115.155 186.201 115.17 186.185 115.17 186.185H115.14Z" fill="#0A1E3F"/>
<path d="M115.981 186.046C115.981 186.046 115.798 185.985 115.89 185.954C100.608 180.987 86.3804 169.861 86.3804 169.861C86.3499 169.861 86.2277 169.892 86.2277 169.892C79.1138 171.772 70.3358 171.726 64.9316 171.451C68.0459 174.691 71.4655 177.656 75.1141 180.284C75.1293 180.284 75.1446 180.3 75.1599 180.315C75.5873 180.62 76.0148 180.926 76.4422 181.216C76.488 181.247 76.5338 181.278 76.5796 181.308C76.9918 181.583 77.404 181.874 77.8314 182.149C77.8925 182.195 77.9688 182.24 78.0299 182.271C78.4421 182.531 78.8543 182.806 79.2664 183.066C79.3428 183.112 79.4191 183.157 79.4954 183.203C79.9076 183.463 80.3198 183.708 80.732 183.952C80.8083 183.998 80.8846 184.044 80.961 184.09C81.3731 184.334 81.8006 184.579 82.228 184.823C82.3044 184.869 82.3807 184.9 82.457 184.945C82.8845 185.19 83.3272 185.419 83.7546 185.664C83.8157 185.694 83.8768 185.725 83.9378 185.771C84.3805 186.015 84.8385 186.245 85.2965 186.474C85.3423 186.489 85.3881 186.52 85.4186 186.535C85.8919 186.779 86.3804 187.009 86.8689 187.238C90.9755 189.194 95.2805 190.784 99.7687 191.96C99.784 191.96 99.8145 191.96 99.8298 191.976C100.349 192.113 100.868 192.251 101.402 192.373C101.463 192.373 101.509 192.404 101.57 192.419C102.074 192.541 102.578 192.648 103.081 192.77C103.158 192.786 103.234 192.801 103.31 192.816C103.814 192.923 104.303 193.03 104.806 193.122C104.898 193.137 104.974 193.152 105.066 193.168C105.555 193.259 106.058 193.351 106.562 193.427C106.654 193.427 106.745 193.458 106.837 193.473C107.341 193.55 107.844 193.626 108.333 193.703C108.425 193.703 108.501 193.733 108.592 193.733C109.096 193.81 109.615 193.871 110.134 193.932C110.211 193.932 110.287 193.947 110.348 193.962C110.882 194.023 111.401 194.085 111.936 194.13C111.982 194.13 112.027 194.13 112.073 194.13C112.638 194.176 113.188 194.222 113.752 194.268C115.401 190.218 115.935 185.817 115.92 185.954L116.012 186.046H115.981Z" fill="#0A1E3F"/>
<path d="M46.9144 116.322C46.9144 116.322 45.9831 111.019 45.174 105.67C45.0977 106.113 45.0214 106.572 44.945 107.03C44.9298 107.168 44.8993 107.29 44.884 107.427C44.8229 107.825 44.7619 108.237 44.7008 108.65C44.6703 108.833 44.6397 109.032 44.6245 109.216C44.5787 109.582 44.5329 109.964 44.4871 110.346C44.4565 110.576 44.426 110.805 44.4107 111.034C44.3802 111.386 44.3344 111.722 44.3039 112.073C44.2733 112.349 44.2581 112.608 44.2275 112.883C44.197 113.204 44.1818 113.525 44.1512 113.846C44.136 114.152 44.1054 114.473 44.0901 114.778C44.0749 115.069 44.0596 115.344 44.0444 115.634C44.0291 116.016 44.0138 116.383 43.9986 116.765C43.9986 116.995 43.9833 117.224 43.968 117.453C43.968 118.064 43.9375 118.676 43.9375 119.287C43.9375 119.975 43.9375 120.678 43.968 121.365C43.968 121.595 43.9833 121.809 43.9986 122.038C44.0138 122.496 44.0291 122.97 44.0596 123.429C44.0596 123.688 44.0902 123.948 44.1054 124.208C44.136 124.636 44.1665 125.049 44.197 125.476C44.2123 125.752 44.2428 126.027 44.2733 126.286C44.3039 126.699 44.3497 127.112 44.3955 127.524C44.426 127.799 44.4565 128.075 44.4871 128.334C44.5329 128.747 44.5939 129.16 44.6397 129.572C44.6703 129.832 44.7161 130.092 44.7466 130.352C44.8077 130.78 44.884 131.208 44.945 131.635C44.9908 131.865 45.0214 132.109 45.0672 132.338C45.1588 132.828 45.2504 133.317 45.342 133.806C45.3725 133.974 45.403 134.142 45.4336 134.31C45.571 134.982 45.7084 135.64 45.861 136.297C45.8763 128.839 46.0747 118.966 46.8991 116.322H46.9144Z" fill="#0A1E3F"/>
<path d="M46.9144 116.371C46.9144 116.371 45.9831 111.068 45.174 105.719C45.0977 106.162 45.0214 106.62 44.945 107.079C44.9298 107.216 44.8993 107.339 44.884 107.476C44.8229 107.874 44.7619 108.286 44.7008 108.699C44.6703 108.882 44.6397 109.081 44.6245 109.264C44.5787 109.631 44.5329 110.013 44.4871 110.395C44.4565 110.625 44.426 110.854 44.4107 111.083C44.3802 111.435 44.3344 111.771 44.3039 112.122C44.2733 112.397 44.2581 112.657 44.2275 112.932C44.197 113.253 44.1818 113.574 44.1512 113.895C44.136 114.201 44.1054 114.522 44.0901 114.827C44.0749 115.118 44.0596 115.393 44.0444 115.683C44.0291 116.065 44.0138 116.432 43.9986 116.814C43.9986 117.043 43.9833 117.273 43.968 117.502C43.968 118.113 43.9375 118.724 43.9375 119.336C43.9375 120.023 43.9375 120.726 43.968 121.414C43.968 121.643 43.9833 121.857 43.9986 122.087C44.0138 122.545 44.0291 123.019 44.0596 123.477C44.0596 123.737 44.0902 123.997 44.1054 124.257C44.136 124.685 44.1665 125.097 44.197 125.525C44.2123 125.8 44.2428 126.075 44.2733 126.335C44.3039 126.748 44.3497 127.161 44.3955 127.573C44.426 127.848 44.4565 128.123 44.4871 128.383C44.5329 128.796 44.5939 129.208 44.6397 129.621C44.6703 129.881 44.7161 130.141 44.7466 130.401C44.8077 130.828 44.884 131.256 44.945 131.684C44.9908 131.914 45.0214 132.158 45.0672 132.387C45.1588 132.876 45.2504 133.365 45.342 133.854C45.3725 134.023 45.403 134.191 45.4336 134.359C45.571 135.031 45.7084 135.688 45.861 136.346C45.8763 128.888 46.0747 119.015 46.8991 116.371H46.9144Z" fill="#0A1E3F"/>
<path d="M81.722 58.2512C81.722 58.1137 81.7068 57.9761 81.6915 57.8386C81.6915 57.9761 81.7068 58.1137 81.722 58.2512C81.7831 58.2054 93.9043 48.944 104.82 45.3066C102.484 45.7651 100.179 46.3306 97.9193 46.9878C97.9193 46.9878 97.904 46.9878 97.8887 46.9878C94.9119 47.8589 92.0113 48.9287 89.2024 50.1513C89.1413 50.1819 89.0802 50.2124 89.0192 50.2277C88.3627 50.5181 87.7063 50.8237 87.0499 51.1294C87.0346 51.1294 87.0041 51.1447 86.9888 51.16C85.6301 51.8018 84.2867 52.4896 82.9738 53.2232C82.8975 53.269 82.8212 53.3148 82.7448 53.3454C82.18 53.6511 81.6304 53.972 81.0808 54.3082C80.974 54.3694 80.8671 54.4305 80.745 54.5069C80.1649 54.8584 79.5848 55.2099 79.0199 55.5614C78.9741 55.592 78.9436 55.6073 78.8978 55.6378C78.2566 56.0352 77.6307 56.4631 77.0048 56.8757C76.9895 56.8757 76.9743 56.891 76.959 56.9063C76.3942 57.2884 75.8293 57.6857 75.2645 58.0984C75.1424 58.1901 75.0202 58.2818 74.8828 58.3735C74.4096 58.7097 73.9516 59.0612 73.4936 59.4127C73.3715 59.5044 73.2494 59.5961 73.1272 59.7031C72.5624 60.131 72.0128 60.5742 71.4785 61.0174C74.0737 60.2991 77.417 59.3821 81.7067 58.2359L81.722 58.2512Z" fill="#0A1E3F"/>
</svg>
